General

Format                           : MPEG-4
Format profile                   : Base Media
Codec ID                         : isom
File size                        : 116 MiB
Duration                         : 3mn 51s
Overall bit rate                 : 4 224 Kbps
Encoded date                     : UTC 2012-05-26 17:30:02
Tagged date                      : UTC 2012-05-26 17:30:02

Video
ID                               : 1
Format                           : AVC
Format/Info                      : Advanced Video Codec
Format profile                   : High@L3.0
Format settings, CABAC           : Yes
Format settings, ReFrames        : 2 frames
Codec ID                         : avc1
Codec ID/Info                    : Advanced Video Coding
Duration                         : 3mn 51s
Bit rate mode                    : Variable
Bit rate                         : 4 221 Kbps
Maximum bit rate                 : 6 563 Kbps
Width                            : 720 pixels
Height                           : 480 pixels
Display aspect ratio             : 16:9
Original display aspect ratio    : 16:9
Frame rate mode                  : Constant
Frame rate                       : 29.970 fps
Standard                         : NTSC
Color space                      : YUV
Chroma subsampling               : 4:2:0
Bit depth                        : 8 bits
Scan type                        : Progressive
Bits/(Pixel*Frame)               : 0.408
Stream size                      : 115 MiB (99%)


Audio
ID                               : 2
Format                           : AAC
Format/Info                      : Advanced Audio Codec
Format profile                   : LC
Codec ID                         : 40
Duration                         : 3mn 50s
Bit rate mode                    : Variable
Bit rate                         : 37.5 Kbps
Maximum bit rate                 : 43.2 Kbps
Channel(s)                       : 2 channels
Channel positions                : Front: L R
Sampling rate                    : 44.1 KHz
Compression mode                 : Lossy
Stream size                      : 1.03 MiB (1%)